<?xml version="1.0" encoding="utf-8"?>
<!-- Generator: Adobe Illustrator 19.2.1, SVG Export Plug-In . SVG Version: 6.00 Build 0)  -->
<svg version="1.1" id="Layer_1" xmlns="http://www.w3.org/2000/svg" xmlns:xlink="http://www.w3.org/1999/xlink" x="0px" y="0px"
	 viewBox="0 0 221.7 131.1" style="enable-background:new 0 0 221.7 131.1;" xml:space="preserve">
<style type="text/css">
	.st0{fill:#873931;}
	.st1{fill:#5E141F;}
	.st2{fill:#7F232D;}
	.st3{fill:#9A4B3F;}
	.st4{fill:#BA8443;}
	.st5{fill:#A35F28;}
	.st6{fill:#492710;}
	.st7{fill:#548408;}
	.st8{fill:#5E9614;}
	.st9{fill:#4C2F10;}
	.st10{fill:#68481F;}
	.st11{fill:url(#SVGID_1_);}
	.st12{fill:#844719;}
	.st13{fill:#873B39;}
	.st14{fill:#6D2929;}
	.st15{fill:#5B1E1E;}
	.st16{opacity:0.5;fill:url(#SVGID_2_);enable-background:new    ;}
	.st17{opacity:0.5;fill:url(#SVGID_3_);enable-background:new    ;}
	.st18{fill:url(#SVGID_4_);}
	.st19{fill:#CEA65F;}
	.st20{fill:#E5C991;}
	.st21{fill:#E5CF76;}
	.st22{fill:#773E13;}
	.st23{fill:#7F4418;}
	.st24{fill:#EDA018;}
</style>
<g id="Treehouse">
	<g>
		<g>
			<g>
				<g>
					<polygon class="st0" points="105.6,0 95.4,25 105.6,25 115.8,25 					"/>
					<g>
						<polygon class="st1" points="103.5,13 110.9,13 110.5,12 103.7,12 						"/>
						<polygon class="st1" points="103.1,15 111.7,15 111.3,13.9 103.3,13.9 						"/>
						<polygon class="st1" points="103.8,11 110.1,11 109.7,10 104,10 						"/>
						<polygon class="st1" points="102.8,17 112.5,17 112.1,15.9 103,15.9 						"/>
						<polygon class="st1" points="101.4,25 105.6,25 115.8,25 115.3,23.8 101.6,23.8 						"/>
						<polygon class="st1" points="102.5,18.9 113.4,18.9 112.9,17.9 102.6,17.9 						"/>
						<polygon class="st1" points="101.8,22.9 115,22.9 114.5,21.8 102,21.8 						"/>
						<polygon class="st1" points="102.1,20.9 114.2,20.9 113.7,19.9 102.3,19.9 						"/>
						<polygon class="st1" points="104.2,9 109.3,9 108.9,8 104.3,8 						"/>
						<polygon class="st1" points="104.5,7.1 108.5,7.1 108.1,6 104.7,6 						"/>
						<polygon class="st1" points="105.2,3.1 106.9,3.1 106.5,2.1 105.3,2.1 						"/>
						<polygon class="st1" points="104.8,5.1 107.7,5.1 107.3,4 105,4 						"/>
						<polygon class="st1" points="105.7,0.1 105.5,1.1 106.1,1.1 						"/>
						<polygon class="st0" points="103.7,12 110.5,12 110.1,11 103.8,11 						"/>
						<polygon class="st0" points="103.3,13.9 111.3,13.9 110.9,13 103.5,13 						"/>
						<polygon class="st0" points="103,15.9 112.1,15.9 111.7,15 103.1,15 						"/>
						<polygon class="st0" points="102.6,17.9 112.9,17.9 112.5,17 102.8,17 						"/>
						<polygon class="st0" points="102.3,19.9 113.7,19.9 113.4,18.9 102.5,18.9 						"/>
						<polygon class="st0" points="102,21.8 114.5,21.8 114.2,20.9 102.1,20.9 						"/>
						<polygon class="st0" points="101.6,23.8 115.3,23.8 115,22.9 101.8,22.9 						"/>
						<path class="st0" d="M105.7,0.1L105.7,0.1L105.7,0.1z"/>
						<polygon class="st0" points="105.3,2.1 106.5,2.1 106.1,1.1 105.5,1.1 						"/>
						<polygon class="st0" points="105,4 107.3,4 106.9,3.1 105.2,3.1 						"/>
						<polygon class="st0" points="104.7,6 108.1,6 107.7,5.1 104.8,5.1 						"/>
						<polygon class="st0" points="104.3,8 108.9,8 108.5,7.1 104.5,7.1 						"/>
						<polygon class="st0" points="104,10 109.7,10 109.3,9 104.2,9 						"/>
						<polygon class="st2" points="98.7,17 102.8,17 103,15.9 99.1,15.9 						"/>
						<polygon class="st2" points="100.3,13 103.5,13 103.7,12 100.8,12 						"/>
						<polygon class="st2" points="97.1,20.9 102.1,20.9 102.3,19.9 97.5,19.9 						"/>
						<polygon class="st2" points="96.3,22.9 101.8,22.9 102,21.8 96.7,21.8 						"/>
						<polygon class="st2" points="101.1,11 103.8,11 104,10 101.6,10 						"/>
						<polygon class="st2" points="99.5,15 103.1,15 103.3,13.9 99.9,13.9 						"/>
						<polygon class="st2" points="97.9,18.9 102.5,18.9 102.6,17.9 98.3,17.9 						"/>
						<polygon class="st2" points="103.6,5.1 104.8,5.1 105,4 104,4 						"/>
						<polygon class="st2" points="105.2,1.1 105.5,1.1 105.7,0.1 105.6,0.1 						"/>
						<polygon class="st2" points="95.9,23.8 95.4,25 101.4,25 101.6,23.8 						"/>
						<polygon class="st2" points="102.8,7.1 104.5,7.1 104.7,6 103.2,6 						"/>
						<polygon class="st2" points="104.4,3.1 105.2,3.1 105.3,2.1 104.8,2.1 						"/>
						<polygon class="st2" points="101.9,9 104.2,9 104.3,8 102.4,8 						"/>
						<polygon class="st3" points="100.8,12 103.7,12 103.8,11 101.1,11 						"/>
						<polygon class="st3" points="99.9,13.9 103.3,13.9 103.5,13 100.3,13 						"/>
						<polygon class="st3" points="99.1,15.9 103,15.9 103.1,15 99.5,15 						"/>
						<polygon class="st3" points="98.3,17.9 102.6,17.9 102.8,17 98.7,17 						"/>
						<polygon class="st3" points="97.5,19.9 102.3,19.9 102.5,18.9 97.9,18.9 						"/>
						<polygon class="st3" points="96.7,21.8 102,21.8 102.1,20.9 97.1,20.9 						"/>
						<polygon class="st3" points="95.9,23.8 101.6,23.8 101.8,22.9 96.3,22.9 						"/>
						<polygon class="st0" points="105.6,0 105.6,0.1 105.7,0.1 105.7,0.1 						"/>
						<polygon class="st3" points="104.8,2.1 105.3,2.1 105.5,1.1 105.2,1.1 						"/>
						<polygon class="st3" points="104,4 105,4 105.2,3.1 104.4,3.1 						"/>
						<polygon class="st3" points="103.2,6 104.7,6 104.8,5.1 103.6,5.1 						"/>
						<polygon class="st3" points="102.4,8 104.3,8 104.5,7.1 102.8,7.1 						"/>
						<polygon class="st3" points="101.6,10 104,10 104.2,9 101.9,9 						"/>
					</g>
				</g>
				<rect x="96.3" y="25" class="st4" width="4.5" height="20.5"/>
				<rect x="100.8" y="25" class="st5" width="13.3" height="20.5"/>
				<rect x="109.1" y="28.6" class="st6" width="2.3" height="5.6"/>
				<rect x="101.6" y="31.4" class="st6" width="3" height="6.9"/>
			</g>
			<g>
				<g>
					<polygon class="st0" points="162.5,22 153.9,43.3 162.5,43.3 171.2,43.3 					"/>
					<g>
						<polygon class="st1" points="160.7,33.1 167.1,33.1 166.7,32.2 160.9,32.2 						"/>
						<polygon class="st1" points="160.4,34.8 167.7,34.8 167.4,33.9 160.6,33.9 						"/>
						<polygon class="st1" points="161,31.4 166.4,31.4 166,30.5 161.1,30.5 						"/>
						<polygon class="st1" points="160.1,36.4 168.4,36.4 168.1,35.5 160.3,35.5 						"/>
						<polygon class="st1" points="159,43.3 162.5,43.3 171.2,43.3 170.8,42.3 159.1,42.3 						"/>
						<polygon class="st1" points="159.9,38.1 169.1,38.1 168.8,37.2 160,37.2 						"/>
						<polygon class="st1" points="159.3,41.5 170.5,41.5 170.1,40.6 159.4,40.6 						"/>
						<polygon class="st1" points="159.6,39.8 169.8,39.8 169.4,38.9 159.7,38.9 						"/>
						<polygon class="st1" points="161.3,29.7 165.7,29.7 165.3,28.8 161.4,28.8 						"/>
						<polygon class="st1" points="161.6,28 165,28 164.6,27.1 161.7,27.1 						"/>
						<polygon class="st1" points="162.1,24.7 163.6,24.7 163.3,23.8 162.3,23.8 						"/>
						<polygon class="st1" points="161.9,26.3 164.3,26.3 164,25.4 162,25.4 						"/>
						<polygon class="st1" points="162.6,22.1 162.4,23 162.9,23 						"/>
						<polygon class="st0" points="160.9,32.2 166.7,32.2 166.4,31.4 161,31.4 						"/>
						<polygon class="st0" points="160.6,33.9 167.4,33.9 167.1,33.1 160.7,33.1 						"/>
						<polygon class="st0" points="160.3,35.5 168.1,35.5 167.7,34.8 160.4,34.8 						"/>
						<polygon class="st0" points="160,37.2 168.8,37.2 168.4,36.4 160.1,36.4 						"/>
						<polygon class="st0" points="159.7,38.9 169.4,38.9 169.1,38.1 159.9,38.1 						"/>
						<polygon class="st0" points="159.4,40.6 170.1,40.6 169.8,39.8 159.6,39.8 						"/>
						<polygon class="st0" points="159.1,42.3 170.8,42.3 170.5,41.5 159.3,41.5 						"/>
						<path class="st0" d="M162.6,22.1L162.6,22.1L162.6,22.1z"/>
						<polygon class="st0" points="162.3,23.8 163.3,23.8 162.9,23 162.4,23 						"/>
						<polygon class="st0" points="162,25.4 164,25.4 163.6,24.7 162.1,24.7 						"/>
						<polygon class="st0" points="161.7,27.1 164.6,27.1 164.3,26.3 161.9,26.3 						"/>
						<polygon class="st0" points="161.4,28.8 165.3,28.8 165,28 161.6,28 						"/>
						<polygon class="st0" points="161.1,30.5 166,30.5 165.7,29.7 161.3,29.7 						"/>
						<polygon class="st2" points="156.7,36.4 160.1,36.4 160.3,35.5 157,35.5 						"/>
						<polygon class="st2" points="158,33.1 160.7,33.1 160.9,32.2 158.4,32.2 						"/>
						<polygon class="st2" points="155.3,39.8 159.6,39.8 159.7,38.9 155.6,38.9 						"/>
						<polygon class="st2" points="154.6,41.5 159.3,41.5 159.4,40.6 155,40.6 						"/>
						<polygon class="st2" points="158.7,31.4 161,31.4 161.1,30.5 159.1,30.5 						"/>
						<polygon class="st2" points="157.3,34.8 160.4,34.8 160.6,33.9 157.7,33.9 						"/>
						<polygon class="st2" points="156,38.1 159.9,38.1 160,37.2 156.3,37.2 						"/>
						<polygon class="st2" points="160.8,26.3 161.9,26.3 162,25.4 161.1,25.4 						"/>
						<polygon class="st2" points="162.1,23 162.4,23 162.6,22.1 162.5,22.1 						"/>
						<polygon class="st2" points="154.3,42.3 153.9,43.3 159,43.3 159.1,42.3 						"/>
						<polygon class="st2" points="160.1,28 161.6,28 161.7,27.1 160.5,27.1 						"/>
						<polygon class="st2" points="161.5,24.7 162.1,24.7 162.3,23.8 161.8,23.8 						"/>
						<polygon class="st2" points="159.4,29.7 161.3,29.7 161.4,28.8 159.8,28.8 						"/>
						<polygon class="st3" points="158.4,32.2 160.9,32.2 161,31.4 158.7,31.4 						"/>
						<polygon class="st3" points="157.7,33.9 160.6,33.9 160.7,33.1 158,33.1 						"/>
						<polygon class="st3" points="157,35.5 160.3,35.5 160.4,34.8 157.3,34.8 						"/>
						<polygon class="st3" points="156.3,37.2 160,37.2 160.1,36.4 156.7,36.4 						"/>
						<polygon class="st3" points="155.6,38.9 159.7,38.9 159.9,38.1 156,38.1 						"/>
						<polygon class="st3" points="155,40.6 159.4,40.6 159.6,39.8 155.3,39.8 						"/>
						<polygon class="st3" points="154.3,42.3 159.1,42.3 159.3,41.5 154.6,41.5 						"/>
						<polygon class="st0" points="162.5,22 162.5,22.1 162.6,22.1 162.6,22.1 						"/>
						<polygon class="st3" points="161.8,23.8 162.3,23.8 162.4,23 162.1,23 						"/>
						<polygon class="st3" points="161.1,25.4 162,25.4 162.1,24.7 161.5,24.7 						"/>
						<polygon class="st3" points="160.5,27.1 161.7,27.1 161.9,26.3 160.8,26.3 						"/>
						<polygon class="st3" points="159.8,28.8 161.4,28.8 161.6,28 160.1,28 						"/>
						<polygon class="st3" points="159.1,30.5 161.1,30.5 161.3,29.7 159.4,29.7 						"/>
					</g>
				</g>
				<rect x="154.6" y="43.3" class="st4" width="3.9" height="17.5"/>
				<rect x="158.5" y="43.3" class="st5" width="11.3" height="17.5"/>
				<rect x="165.5" y="46.4" class="st6" width="2" height="4.7"/>
				<rect x="159.1" y="48.7" class="st6" width="2.6" height="5.9"/>
			</g>
			<g>
				<g>
					<path class="st7" d="M81.5,39.4c0,2.8-2.3,5.2-5.2,5.2V34.3C79.2,34.3,81.5,36.6,81.5,39.4z"/>
					<path class="st8" d="M76.3,34.3v10.3c-2.8,0-5.2-2.3-5.2-5.2S73.5,34.3,76.3,34.3z"/>
					<path class="st7" d="M68.1,46.8c1.9,0.9,4.3,0.1,5.2-1.8l-7-3.4C65.4,43.5,66.2,45.9,68.1,46.8z"/>
					<path class="st8" d="M66.3,41.6l7,3.4c0.9-1.9,0.1-4.3-1.8-5.2C69.6,38.9,67.3,39.7,66.3,41.6z"/>
					<path class="st7" d="M84.6,50.8c-2.1,1.1-4.7,0.2-5.7-1.8l7.6-3.9C87.5,47.2,86.7,49.7,84.6,50.8z"/>
					<path class="st8" d="M86.5,45.1L78.9,49c-1.1-2.1-0.2-4.7,1.8-5.7S85.4,43,86.5,45.1z"/>
					<polygon class="st9" points="77.4,50.5 78.4,82.6 76.3,82.6 76.3,38.8 77.3,49.2 82.7,47.1 					"/>
					<polygon class="st10" points="76.3,38.8 76.3,82.6 74.2,82.6 75.5,46.7 70.5,43.7 75.6,45.5 76.3,38.6 					"/>
					<path class="st7" d="M73.7,51.4c0.9,0.3,1.8-0.2,2.1-1.1l-3.2-1C72.3,50.2,72.8,51.2,73.7,51.4z"/>
					<path class="st8" d="M72.6,49.3l3.2,1c0.3-0.9-0.2-1.8-1.1-2.1C73.8,48,72.9,48.5,72.6,49.3z"/>
				</g>
			</g>
			<g>
				<g>
					<polygon class="st4" points="91.6,40.7 81.2,51 81.2,73.8 102,73.8 102,51 					"/>
					<polygon class="st5" points="106.6,40.7 91.6,40.7 102,51 102,73.8 117,85 117,51 					"/>
					<polygon class="st0" points="117,40.7 91.6,40.7 102,51 117,51 					"/>
					
						<linearGradient id="SVGID_1_" gradientUnits="userSpaceOnUse" x1="82.6" y1="390.7" x2="92.443" y2="390.7" gradientTransform="matrix(1 0 0 1 0 -344)">
						<stop  offset="0" style="stop-color:#BB7543"/>
						<stop  offset="1" style="stop-color:#81422D"/>
					</linearGradient>
					<polygon class="st11" points="91.8,42.1 82.6,51.3 83.8,51.3 92.4,42.9 					"/>
				</g>
				<path class="st6" d="M93.9,49.4c0,0.9-0.7,1.7-1.7,1.7c-0.9,0-1.7-0.7-1.7-1.7c0-0.9,0.7-1.7,1.7-1.7
					C93.1,47.7,93.9,48.5,93.9,49.4z"/>
			</g>
			<g>
				<g>
					<path class="st7" d="M64.8,60c0,2,1.6,3.6,3.6,3.6v-7.2C66.4,56.4,64.8,58,64.8,60z"/>
					<path class="st8" d="M68.3,56.4v7.2c2,0,3.6-1.6,3.6-3.6C71.9,58,70.3,56.4,68.3,56.4z"/>
					<path class="st7" d="M74,65.1c-1.3,0.7-3,0.1-3.6-1.2l4.9-2.4C75.9,62.8,75.4,64.4,74,65.1z"/>
					<path class="st8" d="M75.3,61.5l-4.9,2.4c-0.7-1.3-0.1-3,1.2-3.6C73,59.6,74.6,60.1,75.3,61.5z"/>
					<path class="st7" d="M62.6,67.9c1.5,0.7,3.2,0.2,4-1.3l-5.3-2.7C60.6,65.3,61.1,67.1,62.6,67.9z"/>
					<path class="st8" d="M61.3,63.9l5.3,2.7c0.7-1.5,0.2-3.2-1.3-4C63.8,61.9,62,62.4,61.3,63.9z"/>
					<polygon class="st9" points="67.6,67.6 66.9,90 68.3,90 68.3,59.5 67.7,66.7 63.9,65.3 					"/>
					<polygon class="st10" points="68.3,59.5 68.3,90 69.8,90 68.9,65 72.4,62.9 68.8,64.2 68.4,59.4 					"/>
					<path class="st7" d="M70.2,68.3c-0.6,0.2-1.3-0.1-1.5-0.7l2.2-0.7C71.1,67.5,70.8,68.1,70.2,68.3z"/>
					<path class="st8" d="M70.9,66.8l-2.2,0.7c-0.2-0.6,0.1-1.3,0.7-1.5C70.1,65.9,70.7,66.2,70.9,66.8z"/>
				</g>
			</g>
			<g>
				<rect x="14.2" y="78.4" class="st5" width="12.8" height="16.2"/>
				<rect x="10.1" y="78.4" class="st4" width="4.1" height="16.2"/>
				<rect x="27" y="78.4" class="st12" width="4.1" height="16.2"/>
				<g>
					<rect x="18.3" y="80.8" class="st6" width="2.1" height="2.5"/>
					<rect x="20.8" y="80.8" class="st6" width="2.1" height="2.5"/>
					<rect x="18.3" y="83.8" class="st6" width="2.1" height="2.5"/>
					<rect x="20.8" y="83.8" class="st6" width="2.1" height="2.5"/>
				</g>
				<g>
					<polygon class="st3" points="20.6,67.8 12.7,78.4 28.5,78.4 					"/>
					<polygon class="st13" points="20.6,67.8 12.7,78.4 7.6,78.4 					"/>
					<polygon class="st13" points="20.6,67.8 28.5,78.4 33.5,78.4 					"/>
					<g>
						<polygon class="st3" points="17.8,71.6 23.4,71.6 22.7,70.6 18.5,70.6 						"/>
						<polygon class="st3" points="12.7,78.4 12.7,78.4 28.5,78.4 28.5,78.4 						"/>
						<polygon class="st3" points="19.2,69.6 22,69.6 21.2,68.6 20,68.6 						"/>
						<polygon class="st3" points="13.4,77.5 27.8,77.5 27,76.4 14.1,76.4 						"/>
						<polygon class="st3" points="14.8,75.5 26.3,75.5 25.6,74.5 15.6,74.5 						"/>
						<polygon class="st3" points="16.3,73.5 24.9,73.5 24.1,72.5 17.1,72.5 						"/>
						<polygon class="st13" points="7.6,78.4 7.6,78.4 12.7,78.4 12.7,78.4 						"/>
						<polygon class="st13" points="14.1,76.4 10,76.4 8.8,77.5 13.4,77.5 						"/>
						<polygon class="st13" points="15.6,74.5 12.4,74.5 11.2,75.5 14.8,75.5 						"/>
						<polygon class="st13" points="20,68.6 19.6,68.6 18.3,69.6 19.2,69.6 						"/>
						<polygon class="st13" points="18.5,70.6 17.2,70.6 15.9,71.6 17.8,71.6 						"/>
						<polygon class="st13" points="17.1,72.5 14.8,72.5 13.6,73.5 16.3,73.5 						"/>
						<polygon class="st13" points="23.4,71.6 25.2,71.6 24,70.6 22.7,70.6 						"/>
						<polygon class="st13" points="21.2,68.6 22,69.6 22.8,69.6 21.6,68.6 						"/>
						<polygon class="st13" points="26.3,75.5 30,75.5 28.7,74.5 25.6,74.5 						"/>
						<polygon class="st13" points="24.9,73.5 27.6,73.5 26.4,72.5 24.1,72.5 						"/>
						<polygon class="st13" points="27.8,77.5 32.4,77.5 31.1,76.4 27,76.4 						"/>
						<polygon class="st13" points="28.5,78.4 33.5,78.4 33.5,78.4 						"/>
						<polygon class="st14" points="12.7,78.4 28.5,78.4 27.8,77.5 13.4,77.5 						"/>
						<polygon class="st15" points="13.4,77.5 8.8,77.5 7.6,78.4 12.7,78.4 						"/>
						<polygon class="st15" points="28.5,78.4 33.5,78.4 32.4,77.5 27.8,77.5 						"/>
						<polygon class="st14" points="14.1,76.4 27,76.4 26.3,75.5 14.8,75.5 						"/>
						<polygon class="st15" points="14.8,75.5 11.2,75.5 10,76.4 14.1,76.4 						"/>
						<polygon class="st15" points="27,76.4 31.1,76.4 30,75.5 26.3,75.5 						"/>
						<polygon class="st14" points="15.6,74.5 25.6,74.5 24.9,73.5 16.3,73.5 						"/>
						<polygon class="st15" points="16.3,73.5 13.6,73.5 12.4,74.5 15.6,74.5 						"/>
						<polygon class="st15" points="25.6,74.5 28.7,74.5 27.6,73.5 24.9,73.5 						"/>
						<polygon class="st14" points="17.1,72.5 24.1,72.5 23.4,71.6 17.8,71.6 						"/>
						<polygon class="st15" points="17.8,71.6 15.9,71.6 14.8,72.5 17.1,72.5 						"/>
						<polygon class="st15" points="24.1,72.5 26.4,72.5 25.2,71.6 23.4,71.6 						"/>
						<polygon class="st14" points="18.5,70.6 22.7,70.6 22,69.6 19.2,69.6 						"/>
						<polygon class="st15" points="19.2,69.6 18.3,69.6 17.2,70.6 18.5,70.6 						"/>
						<polygon class="st15" points="22.7,70.6 24,70.6 22.8,69.6 22,69.6 						"/>
						<polygon class="st14" points="20,68.6 21.2,68.6 20.6,67.8 						"/>
						<polygon class="st15" points="20.6,67.8 19.6,68.6 20,68.6 						"/>
						<polygon class="st15" points="21.2,68.6 21.6,68.6 20.6,67.8 						"/>
					</g>
				</g>
				
					<linearGradient id="SVGID_2_" gradientUnits="userSpaceOnUse" x1="20.55" y1="423.945" x2="20.55" y2="422.406" gradientTransform="matrix(1 0 0 1 0 -344)">
					<stop  offset="1.700000e-03" style="stop-color:#FFFFFF"/>
					<stop  offset="1" style="stop-color:#668F7A"/>
				</linearGradient>
				<rect x="10.1" y="78.4" class="st16" width="20.9" height="1.5"/>
			</g>
			<g>
				<rect x="199.3" y="78.4" class="st5" width="12.8" height="16.2"/>
				<rect x="195.2" y="78.4" class="st4" width="4.1" height="16.2"/>
				<rect x="212" y="78.4" class="st12" width="4.1" height="16.2"/>
				<g>
					<rect x="203.3" y="80.8" class="st6" width="2.1" height="2.5"/>
					<rect x="205.9" y="80.8" class="st6" width="2.1" height="2.5"/>
					<rect x="203.3" y="83.8" class="st6" width="2.1" height="2.5"/>
					<rect x="205.9" y="83.8" class="st6" width="2.1" height="2.5"/>
				</g>
				<g>
					<polygon class="st3" points="205.7,67.8 197.8,78.4 213.5,78.4 					"/>
					<polygon class="st13" points="205.7,67.8 197.8,78.4 192.7,78.4 					"/>
					<polygon class="st13" points="205.7,67.8 213.5,78.4 218.6,78.4 					"/>
					<g>
						<polygon class="st3" points="202.8,71.6 208.5,71.6 207.7,70.6 203.6,70.6 						"/>
						<polygon class="st3" points="197.8,78.4 197.8,78.4 213.5,78.4 213.5,78.4 						"/>
						<polygon class="st3" points="204.3,69.6 207,69.6 206.3,68.6 205,68.6 						"/>
						<polygon class="st3" points="198.5,77.5 212.8,77.5 212.1,76.4 199.2,76.4 						"/>
						<polygon class="st3" points="199.9,75.5 211.4,75.5 210.6,74.5 200.7,74.5 						"/>
						<polygon class="st3" points="201.4,73.5 209.9,73.5 209.2,72.5 202.1,72.5 						"/>
						<polygon class="st13" points="192.7,78.4 192.7,78.4 197.8,78.4 197.8,78.4 						"/>
						<polygon class="st13" points="199.2,76.4 195.1,76.4 193.9,77.5 198.5,77.5 						"/>
						<polygon class="st13" points="200.7,74.5 197.5,74.5 196.2,75.5 199.9,75.5 						"/>
						<polygon class="st13" points="205,68.6 204.6,68.6 203.4,69.6 204.3,69.6 						"/>
						<polygon class="st13" points="203.6,70.6 202.2,70.6 201,71.6 202.8,71.6 						"/>
						<polygon class="st13" points="202.1,72.5 199.9,72.5 198.6,73.5 201.4,73.5 						"/>
						<polygon class="st13" points="208.5,71.6 210.3,71.6 209.1,70.6 207.7,70.6 						"/>
						<polygon class="st13" points="206.3,68.6 207,69.6 207.9,69.6 206.7,68.6 						"/>
						<polygon class="st13" points="211.4,75.5 215.1,75.5 213.8,74.5 210.6,74.5 						"/>
						<polygon class="st13" points="209.9,73.5 212.7,73.5 211.4,72.5 209.2,72.5 						"/>
						<polygon class="st13" points="212.8,77.5 217.4,77.5 216.2,76.4 212.1,76.4 						"/>
						<polygon class="st13" points="213.5,78.4 218.6,78.4 218.6,78.4 						"/>
						<polygon class="st14" points="197.8,78.4 213.5,78.4 212.8,77.5 198.5,77.5 						"/>
						<polygon class="st15" points="198.5,77.5 193.9,77.5 192.7,78.4 197.8,78.4 						"/>
						<polygon class="st15" points="213.5,78.4 218.6,78.4 217.4,77.5 212.8,77.5 						"/>
						<polygon class="st14" points="199.2,76.4 212.1,76.4 211.4,75.5 199.9,75.5 						"/>
						<polygon class="st15" points="199.9,75.5 196.2,75.5 195.1,76.4 199.2,76.4 						"/>
						<polygon class="st15" points="212.1,76.4 216.2,76.4 215.1,75.5 211.4,75.5 						"/>
						<polygon class="st14" points="200.7,74.5 210.6,74.5 209.9,73.5 201.4,73.5 						"/>
						<polygon class="st15" points="201.4,73.5 198.6,73.5 197.5,74.5 200.7,74.5 						"/>
						<polygon class="st15" points="210.6,74.5 213.8,74.5 212.7,73.5 209.9,73.5 						"/>
						<polygon class="st14" points="202.1,72.5 209.2,72.5 208.5,71.6 202.8,71.6 						"/>
						<polygon class="st15" points="202.8,71.6 201,71.6 199.9,72.5 202.1,72.5 						"/>
						<polygon class="st15" points="209.2,72.5 211.4,72.5 210.3,71.6 208.5,71.6 						"/>
						<polygon class="st14" points="203.6,70.6 207.7,70.6 207,69.6 204.3,69.6 						"/>
						<polygon class="st15" points="204.3,69.6 203.4,69.6 202.2,70.6 203.6,70.6 						"/>
						<polygon class="st15" points="207.7,70.6 209.1,70.6 207.9,69.6 207,69.6 						"/>
						<polygon class="st14" points="205,68.6 206.3,68.6 205.7,67.8 						"/>
						<polygon class="st15" points="205.7,67.8 204.6,68.6 205,68.6 						"/>
						<polygon class="st15" points="206.3,68.6 206.7,68.6 205.7,67.8 						"/>
					</g>
				</g>
				
					<linearGradient id="SVGID_3_" gradientUnits="userSpaceOnUse" x1="205.65" y1="423.945" x2="205.65" y2="422.406" gradientTransform="matrix(1 0 0 1 0 -344)">
					<stop  offset="1.700000e-03" style="stop-color:#FFFFFF"/>
					<stop  offset="1" style="stop-color:#668F7A"/>
				</linearGradient>
				<rect x="195.2" y="78.4" class="st17" width="20.9" height="1.5"/>
			</g>
			<polygon class="st5" points="142.4,40.7 152.8,51 152.8,94.4 132,94.4 132,51 			"/>
			<polygon class="st4" points="127.4,40.7 142.4,40.7 132,51 132,73.8 117,85 117,51 			"/>
			<polygon class="st3" points="117,40.7 142.4,40.7 132,51 117,51 			"/>
			
				<linearGradient id="SVGID_4_" gradientUnits="userSpaceOnUse" x1="-1280.6188" y1="390.7" x2="-1270.7758" y2="390.7" gradientTransform="matrix(-1 0 0 1 -1129.2188 -344)">
				<stop  offset="0" style="stop-color:#BB7543"/>
				<stop  offset="1" style="stop-color:#81422D"/>
			</linearGradient>
			<polygon class="st18" points="142.2,42.1 151.4,51.3 150.2,51.3 141.6,42.9 			"/>
			<rect x="102" y="52.2" class="st19" width="15" height="6.2"/>
			<rect x="117" y="52.2" class="st20" width="15" height="6.2"/>
			<g>
				<polygon class="st1" points="91.6,40.7 92.4,41.5 117,41.5 117,40.7 				"/>
				<polygon class="st1" points="93.2,42.3 94,43 117,43 117,42.3 				"/>
				<polygon class="st1" points="94.8,43.9 95.6,44.6 117,44.6 117,43.9 				"/>
				<polygon class="st1" points="96.4,45.5 97.2,46.2 117,46.2 117,45.5 				"/>
				<polygon class="st1" points="98,47.1 98.8,47.8 117,47.8 117,47.1 				"/>
				<polygon class="st1" points="99.7,48.7 100.4,49.4 117,49.4 117,48.7 				"/>
				<polygon class="st1" points="101.3,50.3 102,51 117,51 117,50.3 				"/>
				<polygon class="st2" points="142.4,40.7 117,40.7 117,41.5 141.6,41.5 				"/>
				<polygon class="st2" points="140.8,42.3 117,42.3 117,43 140,43 				"/>
				<polygon class="st2" points="139.2,43.9 117,43.9 117,44.6 138.4,44.6 				"/>
				<polygon class="st2" points="137.6,45.5 117,45.5 117,46.2 136.8,46.2 				"/>
				<polygon class="st2" points="136,47.1 117,47.1 117,47.8 135.2,47.8 				"/>
				<polygon class="st2" points="134.3,48.7 117,48.7 117,49.4 133.6,49.4 				"/>
				<polygon class="st2" points="132.8,50.3 117,50.3 117,51 132,51 				"/>
			</g>
			<rect x="90.6" y="59.6" class="st6" width="7.2" height="5.2"/>
			<polygon class="st20" points="100.8,52.2 100.8,51.5 92.4,42.9 83.8,51.3 83.8,53.2 85.6,53.2 85.6,54.9 87.9,54.9 87.9,56 
				92.1,56 92.1,55.3 94.8,55.3 94.8,56.8 97.8,56.8 97.8,55.6 99.7,55.6 99.7,55.8 102,55.8 102,54.7 102,53.7 102,52.2 			"/>
			<polygon class="st2" points="117,59.2 102,68.5 117,68.5 			"/>
			<polygon class="st1" points="117,59.2 132,68.5 117,68.5 			"/>
			<polygon class="st4" points="117,85 102,73.8 102,68.5 117,68.5 			"/>
			<polygon class="st5" points="117,85 132,84.2 132,68.5 117,68.5 			"/>
			<g>
				<polygon class="st3" points="117,68.5 117,67.8 103.2,67.8 102,68.5 				"/>
				<polygon class="st0" points="117,68.5 132,68.5 130.8,67.8 117,67.8 				"/>
				<polygon class="st3" points="117,66.2 105.7,66.2 104.5,67 117,67 				"/>
				<polygon class="st0" points="117,67 129.5,67 128.3,66.2 117,66.2 				"/>
				<polygon class="st3" points="117,64.6 108.3,64.6 107,65.4 117,65.4 				"/>
				<polygon class="st0" points="117,65.4 127,65.4 125.7,64.6 117,64.6 				"/>
				<polygon class="st3" points="117,63 110.8,63 109.6,63.8 117,63.8 				"/>
				<polygon class="st0" points="117,63.8 124.4,63.8 123.2,63 117,63 				"/>
				<polygon class="st3" points="117,61.5 113.3,61.5 112.1,62.2 117,62.2 				"/>
				<polygon class="st0" points="117,62.2 121.9,62.2 120.7,61.5 117,61.5 				"/>
				<polygon class="st3" points="117,59.9 115.9,59.9 114.6,60.6 117,60.6 				"/>
				<polygon class="st0" points="117,59.9 117,60.6 119.4,60.6 118.1,59.9 				"/>
			</g>
			<polygon class="st2" points="102,70.4 64.2,70.4 49.2,79.8 102,79.8 			"/>
			<polygon class="st1" points="102,70.4 117,79.8 102,79.8 			"/>
			<rect x="51.9" y="79.8" class="st4" width="50.1" height="14.6"/>
			<rect x="102" y="79.8" class="st5" width="31" height="14.6"/>
			<polygon class="st3" points="102,79.8 102,79 50.4,79 49.2,79.8 			"/>
			<polygon class="st0" points="102,79.8 117,79.8 115.8,79 102,79 			"/>
			<polygon class="st3" points="102,77.5 52.9,77.5 51.7,78.2 102,78.2 			"/>
			<polygon class="st0" points="102,78.2 114.5,78.2 113.3,77.5 102,77.5 			"/>
			<polygon class="st3" points="102,75.9 55.5,75.9 54.2,76.6 102,76.6 			"/>
			<polygon class="st0" points="102,76.6 112,76.6 110.7,75.9 102,75.9 			"/>
			<polygon class="st3" points="102,74.3 58,74.3 56.8,75.1 102,75.1 			"/>
			<polygon class="st0" points="102,75.1 109.4,75.1 108.2,74.3 102,74.3 			"/>
			<polygon class="st3" points="102,72.7 60.5,72.7 59.3,73.5 102,73.5 			"/>
			<polygon class="st0" points="102,73.5 106.9,73.5 105.7,72.7 102,72.7 			"/>
			<polygon class="st3" points="102,71.2 63.1,71.2 61.8,71.9 102,71.9 			"/>
			<polygon class="st0" points="102,71.2 102,71.9 104.4,71.9 103.1,71.2 			"/>
			<polygon class="st4" points="143.4,53.5 133,63.9 133,94.4 177.3,94.4 177.3,63.9 			"/>
			<polygon class="st5" points="166.9,53.5 143.4,53.5 143.4,63.9 143.4,94.4 177.3,94.4 177.3,63.9 			"/>
			<path class="st6" d="M119.8,94.4h5.2v-9.1c0-1.2-1-2.2-2.2-2.2H122c-1.2,0-2.2,1-2.2,2.2V94.4z"/>
			<rect x="160.4" y="81.5" class="st6" width="13.9" height="6.9"/>
			<rect x="157.2" y="68.1" class="st6" width="11.4" height="5.4"/>
			<polygon class="st19" points="102,88.5 113.5,88.5 117,81.9 117,79.8 102,79.8 			"/>
			<g>
				<rect x="93.8" y="86.2" class="st21" width="1.2" height="8.2"/>
				<rect x="95.3" y="86.2" class="st21" width="1.2" height="8.2"/>
				<rect x="96.8" y="86.2" class="st21" width="1.2" height="8.2"/>
				<rect x="98.3" y="86.2" class="st21" width="1.2" height="8.2"/>
				<rect x="99.8" y="86.2" class="st21" width="1.2" height="8.2"/>
				<rect x="101.3" y="86.2" class="st21" width="1.2" height="8.2"/>
				<rect x="102.8" y="86.2" class="st21" width="1.2" height="8.2"/>
				<rect x="104.3" y="86.2" class="st21" width="1.2" height="8.2"/>
			</g>
			<rect x="96.2" y="81.5" class="st6" width="3" height="3"/>
			<rect x="68.3" y="81.5" class="st6" width="10.3" height="12.9"/>
			<rect x="55.6" y="81.5" class="st6" width="10.3" height="12.9"/>
			<rect x="91.5" y="81.5" class="st6" width="3" height="3"/>
			<g>
				<polygon class="st5" points="82.3,94.4 82.3,93 81,94.4 				"/>
				<polygon class="st5" points="82.6,94.4 83.9,94.4 83.9,91.3 82.6,92.7 				"/>
				<polygon class="st5" points="84.2,94.4 85.5,94.4 85.5,89.7 84.2,91 				"/>
				<polygon class="st5" points="85.8,94.4 87.1,94.4 87.1,88 85.8,89.3 				"/>
				<polygon class="st5" points="87.4,94.4 88.7,94.4 88.7,86.3 87.4,87.6 				"/>
				<polygon class="st5" points="89,94.4 90.3,94.4 90.3,84.6 89,85.9 				"/>
				<polygon class="st5" points="90.6,94.4 91.9,94.4 91.9,82.9 90.6,84.2 				"/>
				<polygon class="st5" points="92.2,94.4 93.5,94.4 93.5,81.2 92.2,82.5 				"/>
				<polygon class="st22" points="81,81.2 81,94.4 82.3,93 82.3,81.2 				"/>
				<polygon class="st22" points="82.6,81.2 82.6,92.7 83.9,91.3 83.9,81.2 				"/>
				<polygon class="st22" points="84.2,81.2 84.2,91 85.5,89.7 85.5,81.2 				"/>
				<polygon class="st22" points="85.8,81.2 85.8,89.3 87.1,88 87.1,81.2 				"/>
				<polygon class="st22" points="87.4,81.2 87.4,87.6 88.7,86.3 88.7,81.2 				"/>
				<polygon class="st22" points="89,81.2 89,85.9 90.3,84.6 90.3,81.2 				"/>
				<polygon class="st22" points="90.6,81.2 90.6,84.2 91.9,82.9 91.9,81.2 				"/>
				<polygon class="st22" points="92.2,82.5 93.5,81.2 92.2,81.2 				"/>
			</g>
			<g>
				<rect x="47.6" y="83.6" class="st23" width="1.3" height="10.8"/>
				<rect x="49.2" y="83.6" class="st23" width="1.3" height="10.8"/>
				<rect x="50.8" y="83.6" class="st23" width="1.3" height="10.8"/>
				<rect x="52.4" y="83.6" class="st23" width="1.3" height="10.8"/>
				<rect x="54" y="83.6" class="st23" width="1.3" height="10.8"/>
				<rect x="55.6" y="83.6" class="st23" width="1.3" height="10.8"/>
				<rect x="57.2" y="83.6" class="st23" width="1.3" height="10.8"/>
				<rect x="58.8" y="83.6" class="st23" width="1.3" height="10.8"/>
				<rect x="60.4" y="83.6" class="st23" width="1.3" height="10.8"/>
				<rect x="61.9" y="83.6" class="st23" width="1.3" height="10.8"/>
				<rect x="63.5" y="83.6" class="st23" width="1.3" height="10.8"/>
				<rect x="65.1" y="83.6" class="st21" width="1.3" height="10.8"/>
				<rect x="66.7" y="83.6" class="st21" width="1.3" height="10.8"/>
				<rect x="68.3" y="83.6" class="st21" width="1.3" height="10.8"/>
				<rect x="69.9" y="83.6" class="st21" width="1.3" height="10.8"/>
				<rect x="71.5" y="83.6" class="st21" width="1.3" height="10.8"/>
				<rect x="73.1" y="83.6" class="st21" width="1.3" height="10.8"/>
				<rect x="74.7" y="83.6" class="st21" width="1.3" height="10.8"/>
				<rect x="76.3" y="83.6" class="st21" width="1.3" height="10.8"/>
				<rect x="77.9" y="83.6" class="st21" width="1.3" height="10.8"/>
				<rect x="79.5" y="83.6" class="st21" width="1.3" height="10.8"/>
				<rect x="79.5" y="83.6" class="st21" width="1.3" height="10.8"/>
			</g>
			<g>
				<rect x="141.7" y="83.6" class="st23" width="1.3" height="10.8"/>
				<rect x="143.3" y="83.6" class="st23" width="1.3" height="10.8"/>
				<rect x="144.9" y="83.6" class="st23" width="1.3" height="10.8"/>
				<rect x="146.5" y="83.6" class="st23" width="1.3" height="10.8"/>
				<rect x="148.1" y="83.6" class="st23" width="1.3" height="10.8"/>
				<rect x="149.7" y="83.6" class="st23" width="1.3" height="10.8"/>
				<rect x="151.3" y="83.6" class="st23" width="1.3" height="10.8"/>
				<rect x="152.9" y="83.6" class="st23" width="1.3" height="10.8"/>
				<rect x="154.5" y="83.6" class="st23" width="1.3" height="10.8"/>
				<rect x="156.1" y="83.6" class="st23" width="1.3" height="10.8"/>
				<rect x="157.7" y="83.6" class="st23" width="1.3" height="10.8"/>
				<rect x="159.3" y="83.6" class="st21" width="1.3" height="10.8"/>
				<rect x="160.9" y="83.6" class="st21" width="1.3" height="10.8"/>
				<rect x="162.4" y="83.6" class="st21" width="1.3" height="10.8"/>
				<rect x="164" y="83.6" class="st21" width="1.3" height="10.8"/>
				<rect x="165.6" y="83.6" class="st21" width="1.3" height="10.8"/>
				<rect x="167.2" y="83.6" class="st21" width="1.3" height="10.8"/>
				<rect x="168.8" y="83.6" class="st21" width="1.3" height="10.8"/>
				<rect x="170.4" y="83.6" class="st21" width="1.3" height="10.8"/>
				<rect x="172" y="83.6" class="st21" width="1.3" height="10.8"/>
				<rect x="173.6" y="83.6" class="st21" width="1.3" height="10.8"/>
				<rect x="173.6" y="83.6" class="st21" width="1.3" height="10.8"/>
			</g>
			<g>
				<rect x="16.9" y="87.6" class="st24" width="1.2" height="6.8"/>
				<rect x="18.4" y="87.6" class="st24" width="1.2" height="6.8"/>
				<rect x="19.8" y="87.6" class="st24" width="1.2" height="6.8"/>
				<rect x="21.3" y="87.6" class="st24" width="1.2" height="6.8"/>
				<rect x="22.7" y="87.6" class="st24" width="1.2" height="6.8"/>
				<rect x="24.2" y="87.6" class="st24" width="1.2" height="6.8"/>
				<rect x="25.6" y="87.6" class="st24" width="1.2" height="6.8"/>
				<rect x="27.1" y="87.6" class="st24" width="1.2" height="6.8"/>
				<rect x="28.5" y="87.6" class="st24" width="1.2" height="6.8"/>
				<rect x="30" y="87.6" class="st24" width="1.2" height="6.8"/>
				<rect x="31.4" y="87.6" class="st24" width="1.2" height="6.8"/>
				<rect x="32.9" y="87.6" class="st24" width="1.2" height="6.8"/>
				<rect x="34.3" y="87.6" class="st24" width="1.2" height="6.8"/>
				<rect x="35.8" y="87.6" class="st24" width="1.2" height="6.8"/>
				<rect x="37.2" y="87.6" class="st24" width="1.2" height="6.8"/>
				<rect x="38.7" y="87.6" class="st24" width="1.2" height="6.8"/>
				<rect x="40.1" y="87.6" class="st24" width="1.2" height="6.8"/>
				<rect x="41.6" y="87.6" class="st24" width="1.2" height="6.8"/>
				<rect x="43" y="87.6" class="st24" width="1.2" height="6.8"/>
				<rect x="44.5" y="87.6" class="st24" width="1.2" height="6.8"/>
				<rect x="45.9" y="87.6" class="st24" width="1.2" height="6.8"/>
				<rect x="45.9" y="87.6" class="st24" width="1.2" height="6.8"/>
			</g>
			<rect x="138.2" y="48.1" class="st6" width="7.5" height="4.4"/>
			<polygon class="st2" points="143.4,53.6 133,63.9 143.4,63.9 			"/>
			<polygon class="st1" points="143.4,53.6 166.9,53.5 177.3,63.9 143.4,63.9 			"/>
			<g>
				<polygon class="st3" points="143.4,63.9 143.4,63.1 133.8,63.1 133,63.9 				"/>
				<polygon class="st0" points="143.4,63.9 177.3,63.9 176.5,63.1 143.4,63.1 				"/>
				<polygon class="st3" points="143.4,61.3 135.6,61.3 134.7,62.2 143.4,62.2 				"/>
				<polygon class="st0" points="143.4,62.2 175.6,62.2 174.7,61.3 143.4,61.3 				"/>
				<polygon class="st3" points="143.4,59.6 137.3,59.6 136.5,60.4 143.4,60.4 				"/>
				<polygon class="st0" points="143.4,60.4 173.8,60.4 173,59.6 143.4,59.6 				"/>
				<polygon class="st3" points="143.4,57.8 139.1,57.8 138.3,58.7 143.4,58.7 				"/>
				<polygon class="st0" points="143.4,58.7 172.1,58.7 171.2,57.8 143.4,57.8 				"/>
				<polygon class="st3" points="143.4,56.1 140.9,56.1 140,57 143.4,57 				"/>
				<polygon class="st0" points="143.4,57 170.3,57 169.4,56.1 143.4,56.1 				"/>
				<polygon class="st3" points="143.4,54.4 142.6,54.4 141.8,55.2 143.4,55.2 				"/>
				<polygon class="st0" points="143.4,54.4 143.4,55.2 168.5,55.2 167.7,54.4 				"/>
			</g>
			<path class="st7" d="M127.1,38.6c1.6,0.5,3.2-0.4,3.7-1.9l-5.7-1.8C124.7,36.4,125.5,38.1,127.1,38.6z"/>
			<g>
				<path class="st7" d="M141,17.1c0,5.1-4.1,9.2-9.2,9.2V7.8C136.9,7.8,141,12,141,17.1z"/>
				<path class="st8" d="M131.8,7.8v18.5c-5.1,0-9.2-4.1-9.3-9.2C122.5,12,126.7,7.8,131.8,7.8z"/>
				<path class="st7" d="M117.1,30.3c3.5,1.7,7.6,0.2,9.3-3.2L113.9,21C112.2,24.5,113.7,28.6,117.1,30.3z"/>
				<path class="st8" d="M113.9,21l12.5,6.1c1.7-3.5,0.2-7.6-3.2-9.3C119.8,16.1,115.6,17.5,113.9,21z"/>
				<path class="st7" d="M146.7,37.5c-3.7,1.9-8.3,0.4-10.3-3.3l13.6-7C151.9,31,150.4,35.6,146.7,37.5z"/>
				<path class="st8" d="M150,27.2l-13.6,7c-1.9-3.7-0.4-8.3,3.3-10.3C143.4,22,148,23.5,150,27.2z"/>
				<path class="st7" d="M141.8,52.4c-2.8,1.5-6.3,0.3-7.8-2.5l10.3-5.3C145.8,47.4,144.7,50.9,141.8,52.4z"/>
				<path class="st8" d="M144.3,44.6L134,49.9c-1.5-2.8-0.3-6.3,2.5-7.8C139.4,40.6,142.9,41.7,144.3,44.6z"/>
				<polygon class="st9" points="133.8,36.9 135.6,131.1 131.8,131.1 131.8,15.9 133.5,34.5 143.2,30.7 				"/>
				<polygon class="st10" points="131.8,15.9 131.8,131.1 128.1,131.1 130.4,30.1 121.3,24.7 130.6,28 131.8,15.5 				"/>
				<path class="st8" d="M125.2,34.8l5.7,1.8c0.5-1.6-0.4-3.2-1.9-3.7C127.3,32.4,125.7,33.3,125.2,34.8z"/>
				<path class="st7" d="M127,57.2c1.6,0.5,3.2-0.4,3.7-1.9l-5.7-1.8C124.5,55,125.4,56.7,127,57.2z"/>
				<path class="st8" d="M125,53.5l5.7,1.8c0.5-1.6-0.4-3.2-1.9-3.7C127.2,51,125.5,51.9,125,53.5z"/>
			</g>
			<g>
				<path class="st7" d="M51.7,56.7c0,5.1-4.1,9.2-9.2,9.2V47.4C47.6,47.4,51.7,51.6,51.7,56.7z"/>
				<path class="st8" d="M42.5,47.5V66c-5.1,0-9.3-4.1-9.3-9.2C33.2,51.6,37.4,47.5,42.5,47.5z"/>
				<path class="st7" d="M27.8,69.9c3.5,1.7,7.6,0.2,9.3-3.2l-12.5-6.1C22.9,64.1,24.4,68.2,27.8,69.9z"/>
				<path class="st8" d="M24.6,60.6l12.5,6.1c1.7-3.5,0.2-7.6-3.2-9.3C30.5,55.7,26.3,57.2,24.6,60.6z"/>
				<path class="st7" d="M57.4,77.1c-3.7,1.9-8.3,0.4-10.3-3.3l13.6-7C62.6,70.6,61.1,75.2,57.4,77.1z"/>
				<path class="st8" d="M60.7,66.8l-13.6,7c-1.9-3.7-0.4-8.3,3.3-10.3C54.1,61.6,58.7,63.1,60.7,66.8z"/>
				<path class="st7" d="M57.9,64.2c-2.8,1.5-6.3,0.3-7.8-2.5l10.3-5.3C61.9,59.3,60.8,62.7,57.9,64.2z"/>
				<path class="st8" d="M60.4,56.4l-10.3,5.3c-1.5-2.8-0.3-6.3,2.5-7.8C55.5,52.4,59,53.6,60.4,56.4z"/>
				<polygon class="st9" points="44.5,76.5 46.3,131.1 42.5,131.1 42.5,55.5 44.2,74.1 53.9,70.3 				"/>
				<polygon class="st10" points="42.5,55.5 42.5,131.1 38.8,131.1 41.1,69.7 32,64.3 41.3,67.6 42.5,55.1 				"/>
				<path class="st7" d="M37.7,81.2c1.6,0.5,3.2-0.4,3.7-1.9l-5.7-1.8C35.3,79.1,36.2,80.7,37.7,81.2z"/>
				<path class="st8" d="M35.8,77.5l5.7,1.8c0.5-1.6-0.4-3.2-1.9-3.7C38,75.1,36.3,75.9,35.8,77.5z"/>
			</g>
			<g>
				<path class="st7" d="M195.9,56.7c0,5.1-4.1,9.2-9.2,9.2V47.4C191.7,47.4,195.9,51.6,195.9,56.7z"/>
				<path class="st8" d="M186.6,47.5V66c-5.1,0-9.3-4.1-9.3-9.2C177.4,51.6,181.5,47.5,186.6,47.5z"/>
				<path class="st7" d="M172,69.9c3.5,1.7,7.6,0.2,9.3-3.2l-12.5-6.1C167.1,64.1,168.5,68.2,172,69.9z"/>
				<path class="st8" d="M168.8,60.6l12.5,6.1c1.7-3.5,0.2-7.6-3.2-9.3C174.6,55.7,170.4,57.2,168.8,60.6z"/>
				<path class="st7" d="M201.5,77.1c-3.7,1.9-8.3,0.4-10.3-3.3l13.6-7C206.7,70.6,205.3,75.2,201.5,77.1z"/>
				<path class="st8" d="M204.8,66.8l-13.6,7c-1.9-3.7-0.4-8.3,3.3-10.3C198.3,61.6,202.9,63.1,204.8,66.8z"/>
				<path class="st7" d="M202.1,64.2c-2.8,1.5-6.3,0.3-7.8-2.5l10.3-5.3C206,59.3,204.9,62.7,202.1,64.2z"/>
				<path class="st8" d="M204.6,56.4l-10.3,5.3c-1.5-2.8-0.3-6.3,2.5-7.8S203.1,53.6,204.6,56.4z"/>
				<polygon class="st9" points="188.6,76.5 190.4,131.1 186.6,131.1 186.6,55.5 188.4,74.1 198,70.3 				"/>
				<polygon class="st10" points="186.6,55.5 186.6,131.1 182.9,131.1 185.2,69.7 176.2,64.3 185.4,67.6 186.6,55.1 				"/>
				<path class="st7" d="M181.9,81.2c1.6,0.5,3.2-0.4,3.7-1.9l-5.7-1.8C179.5,79.1,180.3,80.7,181.9,81.2z"/>
				<path class="st8" d="M180,77.5l5.7,1.8c0.5-1.6-0.4-3.2-1.9-3.7C182.1,75.1,180.5,75.9,180,77.5z"/>
			</g>
			<g>
				<rect x="106.2" y="87.6" class="st24" width="1.4" height="6.8"/>
				<rect x="107.9" y="87.6" class="st24" width="1.4" height="6.8"/>
				<rect x="109.6" y="87.6" class="st24" width="1.4" height="6.8"/>
				<rect x="111.3" y="87.6" class="st24" width="1.4" height="6.8"/>
				<rect x="113" y="87.6" class="st24" width="1.4" height="6.8"/>
				<rect x="114.7" y="87.6" class="st24" width="1.4" height="6.8"/>
				<rect x="116.4" y="87.6" class="st24" width="1.4" height="6.8"/>
				<rect x="118.1" y="87.6" class="st24" width="1.4" height="6.8"/>
				<rect x="119.8" y="87.6" class="st24" width="1.4" height="6.8"/>
				<rect x="121.4" y="87.6" class="st24" width="1.4" height="6.8"/>
				<rect x="123.1" y="87.6" class="st24" width="1.4" height="6.8"/>
				<rect x="124.8" y="87.6" class="st24" width="1.4" height="6.8"/>
				<rect x="126.5" y="87.6" class="st24" width="1.4" height="6.8"/>
				<rect x="128.2" y="87.6" class="st24" width="1.4" height="6.8"/>
				<rect x="129.9" y="87.6" class="st24" width="1.4" height="6.8"/>
				<rect x="131.6" y="87.6" class="st24" width="1.4" height="6.8"/>
				<rect x="133.3" y="87.6" class="st24" width="1.4" height="6.8"/>
				<rect x="135" y="87.6" class="st24" width="1.4" height="6.8"/>
				<rect x="136.6" y="87.6" class="st24" width="1.4" height="6.8"/>
				<rect x="138.3" y="87.6" class="st24" width="1.4" height="6.8"/>
				<rect x="140" y="87.6" class="st24" width="1.4" height="6.8"/>
				<rect x="140" y="87.6" class="st24" width="1.4" height="6.8"/>
			</g>
			<rect x="143.4" y="63.9" class="st19" width="6.9" height="8.7"/>
			<rect x="148.1" y="66.2" class="st19" width="6.1" height="10.8"/>
			<rect x="146.2" y="70.6" class="st4" width="3.2" height="8.8"/>
			<rect x="151.9" y="75.5" class="st19" width="15.9" height="3.5"/>
			<rect x="170.1" y="72.1" class="st19" width="4.8" height="6.3"/>
			<rect x="165.3" y="76.3" class="st4" width="5.9" height="1.7"/>
			<rect x="121.9" y="69.1" class="st22" width="4.3" height="7.8"/>
			<rect x="119.8" y="74" class="st23" width="3.3" height="5.2"/>
			<rect x="113" y="69.6" class="st10" width="2.2" height="4.9"/>
			<rect x="108.8" y="71.4" class="st10" width="5.3" height="1.7"/>
			<rect x="83.3" y="57.2" class="st10" width="4.6" height="8.1"/>
			<rect x="84.9" y="61.7" class="st10" width="4.1" height="6.4"/>
			<rect x="109.4" y="81.9" class="st10" width="4.2" height="3.2"/>
			<g>
				<rect x="27.4" y="126.8" class="st4" width="1.7" height="4.3"/>
				<path class="st4" d="M28.2,126.1c-0.3,0-0.5-0.1-0.7-0.4L9.3,98.6c-0.3-0.4-0.2-0.9,0.2-1.2c0.4-0.3,0.9-0.2,1.2,0.2l16.7,24.8
					V97.1c0-0.5,0.4-0.8,0.8-0.8s0.8,0.4,0.8,0.8v28.2c0,0.4-0.2,0.7-0.6,0.8C28.4,126.1,28.3,126.1,28.2,126.1z"/>
				<path class="st4" d="M28.3,126.1c-0.2,0-0.3,0-0.5-0.1c-0.4-0.3-0.5-0.8-0.2-1.2l18.2-27.1c0.3-0.4,0.8-0.5,1.2-0.2
					s0.5,0.8,0.2,1.2l-18.2,27C28.8,125.9,28.6,126.1,28.3,126.1z"/>
				<circle class="st10" cx="28.2" cy="125.2" r="2.8"/>
				<rect x="75" y="126.8" class="st4" width="1.7" height="4.3"/>
				<path class="st4" d="M75.9,126.1c-0.3,0-0.5-0.1-0.7-0.4L57,98.6c-0.3-0.4-0.2-0.9,0.2-1.2c0.4-0.3,0.9-0.2,1.2,0.2l16.7,24.8
					V97.1c0-0.5,0.4-0.8,0.8-0.8s0.8,0.4,0.8,0.8v28.2c0,0.4-0.2,0.7-0.6,0.8C76.1,126.1,76,126.1,75.9,126.1z"/>
				<path class="st4" d="M76,126.1c-0.2,0-0.3,0-0.5-0.1c-0.4-0.3-0.5-0.8-0.2-1.2l18.2-27.1c0.3-0.4,0.8-0.5,1.2-0.2
					c0.4,0.3,0.5,0.8,0.2,1.2l-18.2,27.1C76.5,125.9,76.2,126.1,76,126.1z"/>
				<circle class="st10" cx="75.9" cy="125.2" r="2.8"/>
				<rect x="122.7" y="126.8" class="st4" width="1.7" height="4.3"/>
				<path class="st4" d="M123.6,126.1c-0.3,0-0.5-0.1-0.7-0.4l-18.2-27.1c-0.3-0.4-0.2-0.9,0.2-1.2c0.4-0.3,0.9-0.2,1.2,0.2
					l16.7,24.8V97.1c0-0.5,0.4-0.8,0.8-0.8s0.8,0.4,0.8,0.8v28.2c0,0.4-0.2,0.7-0.6,0.8C123.8,126.1,123.7,126.1,123.6,126.1z"/>
				<path class="st4" d="M123.7,126.1c-0.2,0-0.3,0-0.5-0.1c-0.4-0.3-0.5-0.8-0.2-1.2l18.2-27.1c0.3-0.4,0.8-0.5,1.2-0.2
					s0.5,0.8,0.2,1.2l-18.2,27.1C124.2,125.9,123.9,126.1,123.7,126.1z"/>
				<circle class="st10" cx="123.6" cy="125.2" r="2.8"/>
				<rect x="170.4" y="126.8" class="st4" width="1.7" height="4.3"/>
				<path class="st4" d="M171.3,126.1c-0.3,0-0.5-0.1-0.7-0.4l-18.2-27.1c-0.3-0.4-0.2-0.9,0.2-1.2c0.4-0.3,0.9-0.2,1.2,0.2
					l16.7,24.8V97.1c0-0.5,0.4-0.8,0.8-0.8c0.5,0,0.8,0.4,0.8,0.8v28.2c0,0.4-0.2,0.7-0.6,0.8C171.4,126.1,171.4,126.1,171.3,126.1z
					"/>
				<path class="st4" d="M171.3,126.1c-0.2,0-0.3,0-0.5-0.1c-0.4-0.3-0.5-0.8-0.2-1.2l18.2-27.1c0.3-0.4,0.8-0.5,1.2-0.2
					s0.5,0.8,0.2,1.2l-18.2,27C171.9,125.9,171.6,126.1,171.3,126.1z"/>
				<circle class="st10" cx="171.3" cy="125.2" r="2.8"/>
			</g>
			<rect y="94.4" class="st10" width="221.7" height="5.5"/>
			<g>
				<polygon class="st5" points="176.7,94.4 176.7,93 175.2,94.4 				"/>
				<polygon class="st5" points="177.1,94.4 178.7,94.4 178.7,91.3 177.1,92.7 				"/>
				<polygon class="st5" points="179.1,94.4 180.6,94.4 180.6,89.7 179.1,91 				"/>
				<polygon class="st5" points="181,94.4 182.6,94.4 182.6,88 181,89.3 				"/>
				<polygon class="st5" points="183,94.4 184.5,94.4 184.5,86.3 183,87.6 				"/>
				<polygon class="st5" points="184.9,94.4 186.5,94.4 186.5,84.6 184.9,85.9 				"/>
				<polygon class="st5" points="186.9,94.4 188.4,94.4 188.4,82.9 186.9,84.2 				"/>
				<polygon class="st5" points="188.8,94.4 190.4,94.4 190.4,81.2 188.8,82.5 				"/>
				<polygon class="st22" points="175.2,81.2 175.2,94.4 176.7,93 176.7,81.2 				"/>
				<polygon class="st22" points="177.1,81.2 177.1,92.7 178.7,91.3 178.7,81.2 				"/>
				<polygon class="st22" points="179.1,81.2 179.1,91 180.6,89.7 180.6,81.2 				"/>
				<polygon class="st22" points="181,81.2 181,89.3 182.6,88 182.6,81.2 				"/>
				<polygon class="st22" points="183,81.2 183,87.6 184.5,86.3 184.5,81.2 				"/>
				<polygon class="st22" points="184.9,81.2 184.9,85.9 186.5,84.6 186.5,81.2 				"/>
				<polygon class="st22" points="186.9,81.2 186.9,84.2 188.4,82.9 188.4,81.2 				"/>
				<polygon class="st22" points="188.8,82.5 190.4,81.2 188.8,81.2 				"/>
			</g>
		</g>
	</g>
</g>
<g id="Pavillion">
</g>
<g id="dishy_fishy">
</g>
<g id="gift_shop">
</g>
</svg>
