<svg width="23" height="22" viewBox="0 0 23 22" xmlns="http://www.w3.org/2000/svg"><path d="M22.074 10.56c0 1.276-2.58 2.05-3.062 3.16-.498 1.15.735 3.44-.17 4.307-.907.867-3.3-.313-4.502.164-1.16.46-1.97 2.93-3.303 2.93-1.334 0-2.144-2.47-3.303-2.93-1.202-.476-3.596.704-4.502-.163-.905-.866.328-3.157-.17-4.307C2.58 12.61 0 11.836 0 10.56 0 9.284 2.58 8.51 3.06 7.4c.5-1.15-.733-3.44.172-4.307.906-.867 3.3.313 4.502-.164C8.894 2.47 9.704 0 11.037 0s2.143 2.47 3.303 2.93c1.202.476 3.596-.704 4.5.163.907.866-.326 3.157.172 4.307.48 1.11 3.062 1.884 3.062 3.16" fill="#32B44B" fill-rule="evenodd"/><path d="M6.222 11.323c-.296-.28-.296-.735 0-1.016.296-.28.775-.28 1.07 0l1.548 1.467c.296.28.775.28 1.07 0l4.815-4.564c.296-.28.775-.28 1.07 0 .297.28.297.735 0 1.016l-5.884 5.58c-.295.28-.774.28-1.07 0l-2.618-2.483z" fill="#FFF" fill-rule="evenodd"/></svg>
